<?xml version="1.0" standalone="no"?>
<!DOCTYPE svg PUBLIC "-//W3C//DTD SVG 1.1//EN" "http://www.w3.org/Graphics/SVG/1.1/DTD/svg11.dtd" >
<svg xmlns="http://www.w3.org/2000/svg">
<metadata>
Created by FontForge 20120731 at Thu Mar 16 17:42:51 2017
 By admin
</metadata>
<defs>
<font id="iconfont" horiz-adv-x="1024" >
  <font-face 
    font-family="iconfont"
    font-weight="500"
    font-stretch="normal"
    units-per-em="1024"
    panose-1="2 0 6 3 0 0 0 0 0 0"
    ascent="896"
    descent="-128"
    x-height="792"
    bbox="-0.090909 -212 1024.15 896"
    underline-thickness="0"
    underline-position="0"
    unicode-range="U+0078-EC5B"
  />
<missing-glyph 
 />
    <glyph glyph-name=".notdef" 
 />
    <glyph glyph-name=".notdef" 
 />
    <glyph glyph-name=".null" horiz-adv-x="0" 
 />
    <glyph glyph-name="nonmarkingreturn" horiz-adv-x="341" 
 />
    <glyph glyph-name="x" unicode="x" horiz-adv-x="1001" 
d="M281 543q-27 -1 -53 -1h-83q-18 0 -36.5 -6t-32.5 -18.5t-23 -32t-9 -45.5v-76h912v41q0 16 -0.5 30t-0.5 18q0 13 -5 29t-17 29.5t-31.5 22.5t-49.5 9h-133v-97h-438v97zM955 310v-52q0 -23 0.5 -52t0.5 -58t-10.5 -47.5t-26 -30t-33 -16t-31.5 -4.5q-14 -1 -29.5 -0.5
t-29.5 0.5h-32l-45 128h-439l-44 -128h-29h-34q-20 0 -45 1q-25 0 -41 9.5t-25.5 23t-13.5 29.5t-4 30v167h911zM163 247q-12 0 -21 -8.5t-9 -21.5t9 -21.5t21 -8.5q13 0 22 8.5t9 21.5t-9 21.5t-22 8.5zM316 123q-8 -26 -14 -48q-5 -19 -10.5 -37t-7.5 -25t-3 -15t1 -14.5
t9.5 -10.5t21.5 -4h37h67h81h80h64h36q23 0 34 12t2 38q-5 13 -9.5 30.5t-9.5 34.5q-5 19 -11 39h-368zM336 498v228q0 11 2.5 23t10 21.5t20.5 15.5t34 6h188q31 0 51.5 -14.5t20.5 -52.5v-227h-327z" />
    <glyph glyph-name="shouji1" unicode="&#xe625;" 
d="M683 764h-341q-32 0 -54.5 -22.5t-22.5 -54.5v-775q0 -32 22.5 -54.5t54.5 -22.5h341q32 0 54.5 22.5t22.5 54.5v775q0 32 -22.5 54.5t-54.5 22.5zM466 702h93q6 0 10.5 -4.5t4.5 -11t-4.5 -11t-10.5 -4.5h-93q-7 0 -11.5 4.5t-4.5 11t4.5 11t11.5 4.5zM512.5 -134
q-19.5 0 -33 13.5t-13.5 33t13.5 33t33 13.5t33 -13.5t13.5 -33t-13.5 -33t-33 -13.5zM729 -10h-433v619h433v-619z" />
    <glyph glyph-name="erweima" unicode="&#xe600;" 
d="M152 688h305q9 0 14.5 -6t7.5 -18.5t2.5 -20.5t0 -25.5t-0.5 -22.5v-169q0 -6 0.5 -21.5t0 -24t-1.5 -19.5t-5.5 -17.5t-11.5 -9.5t-21 -3.5t-33.5 0.5t-23.5 1h-162q-6 0 -23 -0.5t-25.5 -0.5t-20.5 2t-18 7.5t-7 15.5v309q6 18 23 23zM194 619v-220h220v223h-219
q-1 0 -1 -3zM562 688h305q20 -7 23 -27v-301q-5 -22 -21 -27q-9 -2 -22 -2.5t-30.5 0.5t-24.5 1h-157q-7 0 -24.5 -1t-31 -1t-21.5 3t-12.5 9.5t-6.5 19t-2 21.5t0.5 25.5t0.5 22.5v158q0 8 -0.5 25.5t-0.5 27t2 21.5t7.5 18t15.5 7zM604 619v-220h220v223h-219q-2 0 -1 -3z
M294 554q23 5 39 -8t17 -35q0 -27 -22 -40t-45 -2q-16 9 -21.5 28t3.5 36.5t29 20.5zM704 554q39 8 51 -26q10 -30 -10 -51q-16 -16 -41 -12q-22 4 -30.5 24t0 40.5t30.5 24.5zM455 -84h-302q-19 6 -24 25v308q6 19 20 23q9 2 22 2.5t30.5 -0.5t24.5 -1h156q7 0 24.5 1
t31 0.5t22.5 -2.5q8 -3 13 -9.5t6.5 -18.5t2 -21t0 -25.5t-0.5 -23.5v-162q0 -6 0.5 -24.5t0 -26.5t-2.5 -20t-8 -18t-16 -7zM194 203v-220h220v223h-219q-1 0 -1 -3zM890 245v-86q-1 -7 -0.5 -46t-0.5 -47h-218v50q-5 2 -33 1.5t-34 -0.5q-2 -17 -1.5 -99.5t0.5 -101.5h-40
q-10 2 -16 8.5t-8 18.5t-2 21.5t0.5 27t0.5 24.5v158q0 7 -1 25.5t-0.5 32t2.5 21.5q2 5 4.5 8.5t7 5.5t8 3.5t11 2t11.5 0.5h13.5h12.5h148v-136h69q0 12 -0.5 68.5t1.5 67.5q17 0 31 -0.5t23.5 -7t10.5 -20.5zM300 140q25 2 40.5 -17.5t6.5 -45.5q-9 -23 -33.5 -27
t-42.5 12.5t-10.5 45t39.5 32.5zM745 -84h-74v41t1 39h73v-80zM890 -4v-52q-4 -21 -24 -28h-52q0 8 -0.5 41t1.5 39h75z" />
    <glyph glyph-name="gerenzhongxin" unicode="&#xe614;" 
d="M504.5 684q81.5 0 139 -75t57.5 -181t-57.5 -181t-139 -75t-139.5 75t-58 181t58 181t139.5 75zM504 741q-105 0 -179 -91.5t-74 -221.5q0 -79 29.5 -147t80.5 -111q25 -21 53 -34q43 -21 90 -21t91 21q23 11 44 27q54 42 86.5 112.5t32.5 152.5q0 130 -74.5 221.5
t-179.5 91.5v0zM258 114zM626 153l-61 -29l100 -49l192 -70q14 -5 24.5 -20t10.5 -30v-20q0 -19 -29 -19h-309h-100h-290q-28 0 -28 19v20q0 15 10.5 30t23.5 20l173 70l106 48l-65 29l-60 -24l-173 -70q-30 -11 -51 -40.5t-21 -62.5v-20q0 -35 24.5 -55.5t60.5 -20.5h290
h100h309q37 0 61.5 20.5t24.5 55.5v20q0 33 -21 62.5t-52 40.5l-192 70z" />
    <glyph glyph-name="ttpodicon" unicode="&#xe61d;" 
d="M512 699q114 0 210.5 -56t153 -153t56.5 -211t-56.5 -210.5t-153 -153t-210.5 -56.5t-210.5 56.5t-153 153t-56.5 210.5t56.5 211t153 153t210.5 56zM721 -13q-6 0 -9 1q-97 34 -148 38q-12 1 -20 9.5t-8 20.5v55q0 14 11 23q34 30 50.5 88.5t16.5 120.5q0 128 -117 128
q-111 0 -111 -128q0 -62 24.5 -124.5t59.5 -90.5q12 -9 12 -23v-52q0 -11 -8 -19.5t-19 -10.5q-47 -6 -139 -42h-2.5t-2.5 -1q91 -61 201 -61q115 0 209 68v0zM275 9q0 21 19 28q74 30 128 41v13q-45 42 -70.5 114t-25.5 138q0 90 45 139t126 49q83 0 130 -50t47 -138
q0 -21 -2 -46t-9 -62.5t-24.5 -74t-42.5 -62.5v-16q58 -10 136 -38q10 -3 15.5 -12.5t3.5 -20.5q57 50 89 120t32 148q0 98 -48 181t-131 131t-181 48t-181 -48t-131 -131t-48 -181q0 -79 32.5 -149.5t90.5 -120.5v0z" />
    <glyph glyph-name="shouji" unicode="&#xe737;" 
d="M692 716h-335q-31 0 -53.5 -20.5t-22.5 -48.5v-694q0 -28 22.5 -48.5t53.5 -20.5h335q31 0 53.5 20.5t22.5 48.5v694q0 28 -22.5 48.5t-53.5 20.5zM479 661h91q6 0 10.5 -4.5t4.5 -10t-4.5 -9.5t-10.5 -4h-91q-6 0 -10.5 4t-4.5 9.5t4.5 10t10.5 4.5zM524.5 -88
q-18.5 0 -32 12t-13.5 29.5t13.5 29.5t32 12t32 -12t13.5 -29.5t-13.5 -29.5t-32 -12zM738 23h-427v554h427v-554z" />
    <glyph glyph-name="meiyingbao" unicode="&#xe669;" 
d="M832 474q6 28 6 56q0 108 -77 185t-185 77q-95 0 -167.5 -60.5t-89.5 -151.5q-1 -5 -2 -8q-10 -2 -24.5 0t-24.5 5l-9 3l-43 6l13 -115q-4 -3 -10.5 -9t-23.5 -23.5t-30.5 -36t-25.5 -45t-13 -51.5q-55 -8 -66 -10q-30 -9 -28 -42v-146l2.5 -10t9.5 -15.5t20 -10.5h37h22
l3.5 -8t6 -12.5t7.5 -15.5t9.5 -18.5t11 -18.5t13 -19t14.5 -18t16 -16.5t17.5 -12.5t19.5 -10v-58q1 -10 11 -21t22 -11h121q11 0 18.5 9t9.5 17l1 9l209 1q0 -4 1.5 -10t10.5 -16t24 -10h108q2 0 11 4t18.5 15t9.5 24v35q7 6 19.5 15.5t44 41.5t54 66.5t38.5 87t11 105
t-42.5 118t-108.5 129.5zM434 254q-3 -11 -15 -10q-13 -1 -17 9q-1 1 -2 6t-2 7t-3 6.5t-4.5 6.5t-6.5 4.5t-9.5 3.5t-13.5 1q-8 -1 -14 -5.5t-8 -8.5t-4.5 -12.5l-2.5 -8.5q-2 -6 -8 -9q-3 -2 -9.5 -2t-9.5 2q-4 3 -5 10q1 3 -0.5 10t2 17t9 19.5t20.5 15.5t35 6
q21 0 35.5 -6.5t20.5 -16t9.5 -20t2.5 -17t0 -8.5zM750 420q-13 -1 -59 -4.5t-59.5 -4t-50.5 -1.5t-59 0t-55.5 3.5t-66.5 7.5q-32 5 -32 110q0 86 60.5 146.5t146.5 60.5t146.5 -60.5t60.5 -146.5q0 -3 0.5 -18t0 -21.5t-1 -20t-3 -20t-5.5 -15t-9 -12.5t-14 -4zM697 584
q25 2 26 25q-1 21 -26 23h-57q12 28 13.5 46t-18.5 22q-21 1 -28 -17q-5 -20 -15 -48v-1q-1 0 -1 -2h-30q-16 38 -32 59q-14 15 -33 7q-18 -10 -10 -28q5 -8 11 -21q7 -10 10 -17h-50q-22 -2 -24 -23q2 -23 24 -25h94v-51h-91q-23 -1 -25 -23q2 -21 23 -23h93v-45
q2 -25 27 -26q24 3 26 28v43h91q22 2 23 23q-1 22 -23 23h-91v51h93z" />
    <glyph glyph-name="people" unicode="&#xe604;" 
d="M959 -30q0 100 -52.5 181.5t-136.5 117.5q41 30 65 77t24 102q0 76 -43.5 134.5t-110.5 74.5q-1 1 -2 0h-1h-2q-14 0 -24 -10.5t-10 -25.5q0 -14 8 -24t21 -13q2 -1 6 -2v0q39 -14 63.5 -50t24.5 -82q0 -51 -30 -89.5t-76 -47.5v0q-15 -1 -25.5 -13t-10.5 -29
q0 -16 11 -28t26 -13v0q91 -10 149.5 -84t58.5 -176q0 -15 9.5 -26t23.5 -11t23.5 10.5t10.5 24.5v1v0v0v1v0v0zM555 263q49 36 77.5 92t28.5 122q0 107 -70 182t-168.5 75t-168.5 -75t-70 -182q0 -66 28.5 -122t77.5 -92q-101 -43 -163 -140.5t-62 -217.5q0 -12 1 -27v0
q0 -15 9.5 -25.5t23.5 -10.5t23.5 10.5t9.5 25.5v1.5v1.5q-1 14 -1 24q0 130 85.5 222t206 92t206 -92t85.5 -222q0 -10 -1 -25v-0.5v-0.5v-1v0v0v0q1 -15 10.5 -25t23 -10t23 10t9.5 25v0q2 15 2 27q0 120 -62.5 217.5t-163.5 140.5v0zM423 292q-71 0 -121.5 54.5
t-50.5 131t50.5 130.5t121.5 54t121 -54t50 -130.5t-50 -131t-121 -54.5v0zM423 292z" />
    <glyph glyph-name="qiandai" unicode="&#xec5b;" 
d="M504 -212q-258 0 -342 107q-63 81 -28 219q15 61 30.5 110.5t39.5 106t51.5 98t66 77t83.5 53.5l-148 209l39 6q23 3 33 12q25 25 66 25t66 -25q15 -14 42 -14t43 14q25 25 66 25t66 -25q10 -9 32 -12l38 -6l-147 -209q88 -33 152 -124q86 -122 122 -323
q28 -153 -36 -228q-80 -96 -335 -96zM504 529q-112 0 -190 -103t-133 -324q-29 -115 19 -177q70 -89 304 -89q233 0 298 79q49 58 26 189q-34 190 -114 303q-86 122 -210 122zM504 622q36 0 75 -10l88 124q-13 6 -22 15q-12 11 -33.5 11t-32.5 -11q-29 -28 -75.5 -28
t-75.5 28q-12 11 -33.5 11t-32.5 -11q-10 -9 -23 -15l87 -123q38 9 78 9zM662 372q0 -4 -1 -7l-68 -135h29q8 0 13.5 -5.5t5.5 -13.5v-27q0 -8 -5.5 -13.5t-13.5 -5.5h-62l-16 -31h78q8 0 13.5 -6t5.5 -14v-26q0 -8 -5.5 -13.5t-13.5 -5.5h-78v-134q0 -8 -5.5 -13.5
t-13.5 -5.5h-44q-8 0 -13.5 5.5t-5.5 13.5v134h-78q-8 0 -13.5 5.5t-5.5 13.5v26q0 8 5.5 14t13.5 6h78l-16 31h-62q-8 0 -13.5 5.5t-5.5 13.5v27q0 8 5.5 13.5t13.5 5.5h29l-68 135q-2 3 -2 7q0 14 15 14h42q8 0 13 -4t11 -17l79 -152l79 152q6 13 10.5 17t12.5 4h43
q14 0 14 -14v0z" />
    <glyph glyph-name="pingguo" unicode="&#xe784;" 
d="M512 780q-98 0 -186.5 -38t-153 -102.5t-102.5 -153t-38 -186.5t38 -186.5t102.5 -153t153 -102.5t186.5 -38t186.5 38t153 102.5t102.5 153t38 186.5t-38 186.5t-102.5 153t-153 102.5t-186.5 38zM547 568q18 20 46 33.5t54 14.5q6 -54 -35 -101q-19 -21 -46.5 -34
t-54.5 -11q-3 26 7.5 52t28.5 46zM741 63q-18 -25 -29.5 -38.5t-32 -26t-42.5 -13.5q-22 0 -53.5 12.5t-58.5 12.5t-59 -12.5t-52 -13.5q-20 0 -41.5 13.5t-34 27.5t-31.5 39q-31 42 -50.5 95.5t-20 115.5t27.5 107q23 37 60 58t80 22q25 0 63 -14t49 -14q9 0 54.5 16
t75.5 13q16 0 33.5 -4t45 -19t45.5 -39q-74 -46 -73 -121v0q0 -26 9.5 -48.5t20.5 -35.5t26.5 -24t22 -14t12.5 -5v0q-13 -45 -47 -90zM697 280v0v0z" />
    <glyph glyph-name="xialajiantou" unicode="&#xe624;" 
d="M512 3q-6 0 -10 3q-12 10 -2 22l433 492q10 12 21.5 1.5t1.5 -21.5l-433 -492q-4 -5 -11 -5zM512 3q-7 0 -12 5l-432 492q-10 11 1.5 21.5t21.5 -1.5l432 -492q11 -12 -1 -22q-4 -3 -10 -3z" />
    <glyph glyph-name="xiala-copy" unicode="&#xe602;" 
d="M512 124l-279 279l46 45l233 -233l233 233l46 -45z" />
    <glyph glyph-name="s" unicode="&#xe64b;" 
d="M863 -123h-669q-21 0 -35 14t-14 35v649q0 20 14 34.5t35 14.5h669q20 0 34.5 -14.5t14.5 -34.5v-649q0 -21 -14.5 -35t-34.5 -14zM194 576l-1 -650l670 -1v1v649zM277 597l-50 5q12 124 99.5 207.5t206.5 83.5q115 0 202.5 -80.5t102.5 -200.5l-49 -6q-13 101 -86 169
t-170 68q-99 0 -172.5 -70.5t-83.5 -175.5z" />
    <glyph glyph-name="youjiantou" unicode="&#xe6b4;" 
d="M122 384q0 -106 52 -196t142 -142t196 -52t196 52t142 142t52 196t-52 196t-142 142t-196 52t-196 -52t-142 -142t-52 -196zM418 558l243 -169l-243 -168v337z" />
    <glyph glyph-name="qiandai1" unicode="&#xe621;" 
d="M900 320.5q-8 54.5 -30 97.5q-21 42 -50 73q-28 31 -54 54q-31 24 -52 45q-24 23 -38 39q-18 19 -29 33l-5 7q0 1 2.5 3.5l3.5 3.5q3 5 9 12q7 6 11 11q10 10 19 18q7 7 23 14q13 6 22 15q10 11 13 23q4 16 -5 31q-9 13 -29 19q-14 4 -25 2q-8 0 -17 -3l-15 -4
q-3 -1 -9 -1h-8q-4 2 -7 4l-12 8q-10 7 -23 10q-28 8 -47 2q-17 -5 -32 -16q-2 -1 -6 -4h-1v0q-4 1 -8 4q-2 1 -6 4q-14 10 -36 13q-24 3 -44 -6q-20 -10 -29 -17q-2 -2 -8 -3h-4q-2 0 -6 1q-11 2 -20 4q-12 3 -23 4q-16 1 -31 -7q-17 -9 -21.5 -25t2.5 -26q8 -19 29 -30
q11 -5 23 -14q10 -7 18 -15q6 -7 13 -14t12 -14l3.5 -3.5l3.5 -3.5l-5 -6q-13 -17 -31 -37q-14 -16 -35 -36t-47 -44q-34 -28 -62 -64t-47 -79t-27 -93q-7 -50 3 -105q9 -49 37.5 -98t76 -89t115.5 -64.5t155 -24.5q84 0 151 21t116 58q50 36 80 86t40 106q11 66 3 120.5z
M362 757q-5 3 -9 5q1 0 3 -0.5l4 -1t3 -0.5q14 -3 27 -1q19 3 31 12q6 4 19 9q6 3 15 2q3 0 6 -1t4 -1h1q5 -5 11 -8t10 -4q7 -4 16 -7l6 -1q8 0 16 4q8 3 19 11q9 5 19 8q6 0 16 -3q6 -1 7 -2l12 -7q7 -5 16 -8q23 -9 49 -1q-9 -5 -16 -11q-11 -10 -21 -19l-11 -11l-12 -14
q-2 -2 -4 -5h-179l-7 7q-6 8 -14 15q-5 5 -11 12q-11 11 -26 21zM834 212q-8 -45 -32 -85t-65 -69q-40 -30 -97 -48t-130 -18q-75 0 -132 20.5t-96 53.5q-39 32 -62 72t-31 80q-8 44 -2 85t22 77t39 66q24 30 53 55q27 23 48 43q21 21 36 38q5 6 20 26t17 23h178
q2 -4 15.5 -23.5t18.5 -24.5q16 -17 38 -39q23 -22 52 -46q23 -19 47 -46q24 -26 41 -60q18 -34 24.5 -79t-2.5 -101zM619 506l-109 -104l-109 104q-9 8 -21 8t-21 -8.5t-8.5 -20t9.5 -19.5l121 -116v-22h-89q-12 0 -21.5 -14t-9.5 -27q0 -7 4.5 -10.5t10 -4.5t15.5 -1h90
v-57h-89q-12 0 -21.5 -14.5t-9.5 -27.5q0 -10 7 -12.5t23 -2.5h90v-106q0 -23 29 -23q12 0 20.5 8.5t8.5 20.5v100h89q11 0 16 0.5t10 4t5 10.5q0 13 -9 27.5t-21 14.5h-90v57h89q11 0 16.5 1t10 4.5t4.5 10.5q0 13 -9 27t-21 14h-90v22l122 116q8 8 8.5 19.5t-8 20t-21 8.5
t-21.5 -8z" />
    <glyph glyph-name="lvxing" unicode="&#xe612;" horiz-adv-x="1025" 
d="M729 729l32 -32q14 14 32.5 14t32 -13.5t13.5 -32t-14 -32.5l32 -32q27 27 27 64.5t-27 63.5q-25 27 -62.5 27t-65.5 -27zM637 792l-67 -91l-409 88q-34 9 -47 10q-51 8 -84 -24q-19 -19 -26 -45t-1 -52l1 -3q8 -28 26 -46q21 -21 46 -29q108 -69 292 -170l-96 -128h-90
h-11h-2q-34 3 -53.5 -4t-39.5 -26q-30 -30 -30 -73t30 -73q23 -22 48 -27h2q25 -3 62 -5t48 -3l2 -2q1 -6 2 -33t3 -45q-3 -47 29 -79q22 -22 51 -27v0v0q53 -11 93 29q18 18 23.5 42.5t5.5 61.5l1 96l120 96q110 -195 167 -286q11 -26 27 -42q21 -21 46 -26l2 -1l2 1
q25 -6 51 1t45 26.5t27 45t3 49.5l-120 431l103 81q11 9 20.5 14t15.5 12q62 62 68.5 153t-52.5 153q-61 58 -152.5 51.5t-152.5 -67.5zM70 667q-13 13 -13 33.5t13 33.5q17 17 43 12h2l421 -90l-136 -182zM877 -16q5 -25 -13 -44q-13 -13 -32 -13t-32 13q-11 11 -13 21
l-173 308l149 113zM903 566v0l-516 -401l-3 -170q-3 -12 -11 -21q-14 -13 -32.5 -13t-31.5 13q-9 9 -12 21l-1 109q0 1 0.5 4.5t0.5 4.5v2q0 16 -9 26q-4 4 -11 6h-2q-1 0 -2.5 1t-2.5 1t-3.5 0.5t-4.5 0.5h-9l-120 3v0q-4 1 -20 13q-13 13 -13 32t13 32q11 11 21 13v0h167
l393 527v0q7 9 13 16q45 44 112.5 51t111.5 -34q42 -45 35 -112t-52 -112q-2 -3 -6 -7t-5 -6z" />
    <glyph glyph-name="xiala" unicode="&#xe628;" 
d="M960 607.5q-5 5.5 -12.5 5.5t-12.5 -6l-414 -413l-414 413q-5 6 -12.5 6t-13 -5.5t-5.5 -13t6 -12.5l426 -427q6 -5 13 -5t13 5l426 427q5 5 5 12.5t-5 13z" />
    <glyph glyph-name="triangle-down-copy" unicode="&#xe60a;" 
d="M962 609l-450 -450l-450 450h900z" />
    <glyph glyph-name="duobao" unicode="&#xe60b;" 
d="M860 604q-6 6 -14.5 5.5t-14.5 -6.5t-5.5 -14.5t6.5 -14.5q160 -150 150 -304q-3 -46 -21.5 -91.5t-39.5 -75.5t-48 -58t-38 -37t-17 -13q-9 -6 -9 -17v-39q0 -16 -23 -26h-107q-16 0 -18 20q0 8 -6 13.5t-14 5.5v0h-215q-8 0 -14 -5.5t-7 -13.5q-2 -20 -10 -20h-124
q-3 0 -8.5 6t-5.5 9v28v35q0 14 -14 19q-55 20 -107 145q-2 4 -2 5q-5 13 -19 13h-21h-40q-9 1 -13 20v157v2q-2 19 14 23q21 6 45 8q12 1 20 2q17 3 18 19q1 25 12.5 51t24.5 44.5t29 36t23 24t10 9.5q9 7 8 18l-11 99l16 -2q41 -16 69 -9q9 1 13.5 8.5t2.5 15.5t-9 13
t-15 3q-18 -4 -48 8q-3 1 -5 1l-44 7q-10 1 -17.5 -6t-6.5 -17l13 -115q-18 -16 -36 -35.5t-40 -58t-28 -75.5h-4q-26 -3 -50 -9q-26 -7 -36 -27t-9 -39v-158v-2q3 -20 15.5 -38t37.5 -19v0q23 -1 41 0h7q51 -122 115 -155v-20v-31q1 -19 17.5 -36.5t37.5 -17.5h124
q34 0 47 38l182 1q15 -39 55 -39h110q15 0 38 19t23 48v29q15 11 31 26t42 45t45.5 61.5t35.5 76.5t19 90q12 174 -163 337zM297 350q1 -8 6 -12q2 -1 9 -1t10 1q7 4 9 10q0 1 2.5 10t4.5 13.5t8 9.5t15 6q7 0 13 -1.5t10 -4t7 -4.5t5 -7t2.5 -7l2 -8t1.5 -7q5 -10 18 -10
t16 12q-1 2 0 9t-3 18.5t-10 21.5t-21 17.5t-36 7.5q-27 0 -43.5 -10.5t-20 -24t-5.5 -25t0 -14.5zM397 511q83 -13 163 -13q51 0 155 8l48 3t27 10.5t16 21t7.5 31.5t2.5 31.5v31.5v16q0 101 -69 173t-165.5 72t-165.5 -72t-69 -173q0 -132 50 -140zM581.5 855
q79.5 0 136.5 -60t57 -144v-16q1 -83 -14 -84q-17 -2 -50 -4q-101 -8 -151 -8q-76 0 -156 13q-3 3 -6.5 13t-6.5 33t-3 53q0 84 57 144t136.5 60zM493 701h71v-41h-69q-17 -1 -19 -18q2 -17 18 -18h70v-36q1 -20 20 -21q19 2 20 22v35h69q16 1 18 18q-2 17 -18 18h-69v41h70
q19 1 20 19q-1 17 -20 19h-43q9 22 10.5 36.5t-13.5 16.5q-16 2 -21 -13q-4 -15 -12 -38l-1 -2h-22q-12 30 -25 47q-10 12 -25 5q-14 -8 -7 -22q3 -7 8 -17q5 -8 8 -13h-38q-17 -2 -18 -19q1 -18 18 -19z" />
    <glyph glyph-name="xiangshangjiantou" unicode="&#xe62b;" 
d="M966 227l-435 432q-7 7 -17.5 7t-17.5 -7l-442 -432q-7 -7 -7 -17.5t7.5 -17.5t17.5 -7t18 7l425 416l416 -416q7 -7 17.5 -7t18 7t7.5 17.5t-8 17.5z" />
    <glyph glyph-name="xingxing" unicode="&#xe656;" 
d="M240 -39q17 -11 37 -11q17 0 32 8l203 109l203 -109q15 -8 32 -8q20 0 37 11q33 23 26 62l-39 237l171 170q27 28 15 64q-6 17 -20 28.5t-32 14.5l-233 34l-101 211q-8 16 -24 26t-35 10t-35 -10t-24 -26l-101 -211l-233 -34q-18 -3 -32 -14.5t-20 -28.5q-12 -36 15 -64
l171 -170l-39 -237q-7 -39 26 -62zM118 474l233 35l41 6l18 37l102 212l102 -212l18 -37l41 -6l233 -35l-170 -169l-28 -28l6 -40l40 -236l-205 110l-37 20l-37 -20l-205 -110l40 236l6 40l-28 28z" />
    <glyph glyph-name="baina" unicode="&#xe655;" 
d="M512 538l90 124q16 16 32 10q18 -7 9 -26l-83 -118h90q9 0 15.5 -7t6.5 -19q0 -9 -6.5 -15.5t-15.5 -6.5h-116v-42h96q10 0 16.5 -7.5t6.5 -17.5t-6.5 -16.5t-16.5 -6.5h-96v-102q0 -10 -6 -16t-16 -6t-18 6.5t-8 15.5v102h-102q-9 0 -15.5 8t-6.5 18t6 16t16 6h99v42
h-115q-10 0 -16 6.5t-6 15.5q0 10 6.5 18t15.5 8h93l-90 112q-6 22 7 29q9 4 19 1t13 -11zM973 35v96q0 10 -7 16q-3 3 -6 3l-45 16l-99 36q93 108 93 252q0 107 -53 197t-143.5 142t-197.5 52q-107 1 -197.5 -50t-143 -140.5t-52.5 -196.5q0 -29 3 -45q0 -9 5.5 -14
t13.5 -5q11 0 18.5 5.5t7.5 16.5v45q1 89 46 166.5t123.5 125t172.5 47.5q95 0 174 -44.5t125.5 -122.5t46.5 -172q0 -139 -93 -237q-104 40 -135 45q-32 6 -57 -16q-18 -16 -18 -41.5t11 -48.5q4 -6 29 -38q-70 0 -105 6q-117 20 -160 67q-144 154 -196 154h-6
q-5 0 -12.5 -1t-20.5 -5.5t-23 -12.5t-16.5 -25t-5 -39t15 -58t40.5 -80q45 -59 95.5 -102.5t86 -63.5t71.5 -31t47.5 -12.5t19.5 -1.5h124v48h-124q-8 0 -20 2t-42.5 12.5t-62.5 29t-76.5 57.5t-86.5 91q-57 104 -45 128q2 8 13 12t19 4h9q35 -9 157 -134q30 -31 78 -52
t97.5 -29t76.5 -10t46 -2h57q12 0 16.5 9.5t-3.5 19.5l-35 48q-6 6 -11.5 13t-11.5 18t-5.5 19t6.5 17q6 3 19 3q8 -3 37 -12.5t65 -22.5t67 -26q84 -32 132 -51v-144h-196v-48h208q23 0 29 13q3 3 3 13q7 32 7 89zM621 -58zM595 -57.5q0 -10.5 7.5 -18t18 -7.5t18 7.5
t7.5 18t-7.5 18t-18 7.5t-18 -7.5t-7.5 -18zM730 -58zM704 -57.5q0 -10.5 7.5 -18t18 -7.5t18 7.5t7.5 18t-7.5 18t-18 7.5t-18 -7.5t-7.5 -18zM547 -58zM522 -57.5q0 -10.5 7.5 -18t18 -7.5t18 7.5t7.5 18t-7.5 18t-18 7.5t-18 -7.5t-7.5 -18z" />
    <glyph glyph-name="piaowu" unicode="&#xe657;" 
d="M243 362h48v-61h-48v61zM941 304q-19 0 -29 10v-224q0 -12 -8 -19t-21 -7h-144v-48h163q23 0 40.5 16t17.5 42v236q-13 -6 -19 -6zM243 240h48v-61h-48v61zM243 480h48v-61h-48v61zM243 602h48v-61h-48v61zM742 38zM717 38.5q0 -10.5 7.5 -18t18 -7.5t18 7.5t7.5 18
t-7.5 18t-18 7.5t-18 -7.5t-7.5 -18zM630 64q-10 0 -17.5 -7t-7.5 -19q0 -10 7 -17.5t18 -7.5q10 0 16.5 7t6.5 18q0 10 -6.5 18t-16.5 8zM960 490v204q0 23 -16 40.5t-42 17.5h-780q-25 0 -41.5 -16t-16.5 -42v-211q36 0 61 -25t25 -61t-25 -61.5t-61 -25.5v-240
q0 -22 16 -39.5t42 -17.5h435v51h-266v64h-48v-64h-99q-29 0 -29 19v189q39 15 63 48.5t24 76t-24 76.5t-63 49v156q-2 12 5 19t18 7h105v-42h48v42h595q13 0 21 -7t8 -19v-150q-39 -15 -62.5 -48.5t-23.5 -76.5q0 -55 39.5 -94.5t94.5 -39.5v48q-34 2 -58.5 27.5
t-24.5 58.5q0 34 23 59t57 28zM755 496h-355q-10 0 -16 6.5t-6 16t6 16t16 6.5h355q10 0 18 -6.5t8 -16t-8 -16t-18 -6.5zM755 259h-355q-10 0 -16 6.5t-6 16.5t6.5 17.5t15.5 7.5h355q10 0 18 -7t8 -18q0 -8 -8 -15.5t-18 -7.5zM557 38zM531 38.5q0 -10.5 7.5 -18t18 -7.5
t18 7.5t7.5 18t-7.5 18t-18 7.5t-18 -7.5t-7.5 -18z" />
    <glyph glyph-name="youxi" unicode="&#xe658;" 
d="M419 362h-80v76q0 12 -6 19t-16 7q-26 0 -26 -26v-76h-77q-11 0 -18 -6.5t-7 -16.5t7 -17.5t18 -7.5h77v-80q0 -26 26 -26q22 0 22 26v80h80q26 0 26 25q0 23 -26 23zM640 336zM598 336q0 -17 12.5 -29.5t29.5 -12.5t29.5 12.5t12.5 29.5t-12.5 29.5t-29.5 12.5
t-29.5 -12.5t-12.5 -29.5zM813 336zM771 336q0 -17 12.5 -29.5t29.5 -12.5t29 12.5t12 29.5t-12 29.5t-29 12.5t-29.5 -12.5t-12.5 -29.5zM496 61zM470 60.5q0 -10.5 7.5 -18t18.5 -7.5t18.5 7.5t7.5 18t-7.5 18t-18.5 7.5t-18.5 -7.5t-7.5 -18zM557 61zM531 60.5
q0 -10.5 7.5 -18t18 -7.5t18 7.5t7.5 18t-7.5 18t-18 7.5t-18 -7.5t-7.5 -18zM666 61zM640 60.5q0 -10.5 7.5 -18t18 -7.5t18 7.5t7.5 18t-7.5 18t-18 7.5t-18 -7.5t-7.5 -18zM726 634h-192v128q0 11 -6 18t-16 7q-26 0 -26 -25v-128h-185q-125 0 -213 -87.5t-88 -210.5
q0 -122 87.5 -210t210.5 -88h195v48h-192q-103 0 -176.5 74.5t-73.5 175.5q0 103 74 176.5t176 73.5h425q103 0 176.5 -74.5t73.5 -175.5q0 -103 -74 -176.5t-176 -73.5h-60v-48h60q123 0 210.5 88t87.5 210t-87.5 210t-210.5 88z" />
    <glyph glyph-name="toujinbao" unicode="&#xe659;" 
d="M867 653q-82 108 -205 150q-1 0 -2.5 1.5t-3.5 1.5h-3h-3q-11 0 -18.5 -7t-7.5 -18q0 -15 10 -19l3 -4q116 -40 185 -134zM902 474q10 -44 10 -90q0 -53 -16 -112q-3 -3 -3 -13t7 -17.5t18 -7.5q17 0 23 16q22 72 22 134q0 57 -13 99zM90 154q0 28 22 46.5t51 13.5
q19 -2 32.5 -16t15.5 -32q5 -30 -13 -51.5t-48 -21.5q-26 0 -43 17t-17 44zM810 147q0 26 18 43.5t42 17.5q26 0 43.5 -18t17.5 -43q0 -26 -18 -43.5t-43 -17.5q-24 -2 -42 16.5t-18 44.5zM448 797q0 26 18 43.5t43 17.5q26 0 43.5 -18.5t17.5 -43t-17.5 -44t-40.5 -19.5
q-26 0 -45 18.5t-19 45.5zM512 422l102 138q3 6 12 10t17.5 -0.5t10.5 -13t-1 -12.5l-96 -131h105q10 0 16.5 -7t6.5 -19q0 -9 -6.5 -15.5t-16.5 -6.5h-131v-45h112q10 0 16.5 -8t6.5 -18q0 -9 -6.5 -15.5t-16.5 -6.5h-112v-115q0 -10 -6.5 -16.5t-15.5 -6.5q-10 0 -18 6.5
t-8 16.5v115h-118q-10 0 -16.5 8t-6.5 18q0 9 6.5 15.5t16.5 6.5h115v45h-128q-10 0 -16 6.5t-6 15.5q0 10 6.5 18t15.5 8h109l-103 125q-6 22 7 28q9 5 19 1.5t13 -10.5zM653 810q5 -5 0 0v0zM637 765h3q0 -2 -1 -1t-2 1zM115 333q-16 144 60 263t206 166q16 5 16 22
q0 10 -7 18t-19 8q-1 0 -6 -2t-7 -2q-124 -46 -205.5 -155t-88.5 -245q-5 -68 16 -140h3q3 -8 9.5 -14t13.5 -6q9 0 15.5 6.5t6.5 16.5q0 3 -1.5 7t-1.5 6q-10 28 -10 51zM851 640zM826 640q0 -11 7.5 -18.5t18 -7.5t18 7.5t7.5 18.5t-7.5 18.5t-18 7.5t-18 -7.5t-7.5 -18.5
zM925 480zM899 480q0 -11 7.5 -18.5t18 -7.5t18 7.5t7.5 18.5t-7.5 18.5t-18 7.5t-18 -7.5t-7.5 -18.5zM883 582zM858 582.5q0 -10.5 7.5 -18t18 -7.5t18 7.5t7.5 18t-7.5 18t-18 7.5t-18 -7.5t-7.5 -18zM781 58zM755 57.5q0 -10.5 7.5 -18t18 -7.5t18 7.5t7.5 18t-7.5 18
t-18 7.5t-18 -7.5t-7.5 -18zM765 74q-135 -108 -295 -90q-124 14 -217 93q-7 6 -16 6q-10 0 -18 -7t-8 -18q0 -10 7 -16q132 -106 294 -106t285 102z" />
    <glyph glyph-name="zhaofuwu" unicode="&#xe65a;" 
d="M54 467q0 -9 6.5 -15.5t16 -6.5t16 6.5t6.5 15.5q34 144 147 237t260 93q135 0 243.5 -81t149.5 -207q0 -10 6.5 -16.5t16.5 -6.5t17.5 7.5t7.5 18.5q0 6 -3 10q-44 141 -164.5 232t-273.5 91q-164 0 -289 -103.5t-159 -261.5q0 -1 -2 -5t-2 -8v0zM960 320h-125v-58h64
q-22 -65 -67 -131q-6 -6 -6 -16t7 -17.5t18 -7.5q13 0 19 12q57 72 80 157h26v61h-16zM730 35q-4 0 -16 -6q-100 -58 -208 -58h-26q-5 0 -16 1.5t-16 1.5q-142 22 -241 128t-111 250q0 10 -7 18t-19 8q-10 0 -17.5 -7.5t-7.5 -18.5q14 -165 128 -284t275 -138q5 0 16 -2
t16 -2h26q127 0 230 64q16 6 16 23q0 8 -6.5 15t-15.5 7zM784 48zM758 48q0 -11 7.5 -18.5t18.5 -7.5t18.5 7.5t7.5 18.5t-7.5 18.5t-18.5 7.5t-18.5 -7.5t-7.5 -18.5zM726 506q3 -8 9.5 -14t13.5 -6q10 0 17.5 7.5t7.5 18.5q0 10 -3 13q-39 71 -108.5 114t-153.5 43
q-97 0 -173.5 -55.5t-108.5 -143.5q-3 -3 -3 -9q0 -11 7 -18.5t19 -7.5q17 0 22 16q27 73 91.5 119.5t145.5 46.5q66 3 124.5 -31.5t92.5 -92.5zM506 131q-96 0 -167 63t-83 155q0 9 -6.5 15.5t-16 6.5t-16 -6.5t-6.5 -15.5q12 -113 97.5 -189.5t200.5 -76.5
q106 0 187.5 67.5t103.5 169.5h-118v-58h48q-35 -59 -94.5 -95t-129.5 -36zM944 442h-234q-12 0 -22 -10t-10 -22v-23h298v23q0 12 -10 22t-22 10z" />
    <glyph glyph-name="chexian" unicode="&#xe7ab;" 
d="M895 258l-9 60q-2 36 -23.5 65.5t-54.5 44.5l-39 147q-11 51 -55 87t-96 36h-212q-52 0 -96 -36t-55 -87l-39 -147q-33 -15 -54.5 -44.5t-23.5 -65.5l-9 -60q-3 -39 16.5 -71t53.5 -46q8 -31 33.5 -51t58.5 -20q30 0 54 17t34 45h266q10 -28 34 -45t54 -17q33 0 58.5 20
t33.5 51q34 14 53.5 46t16.5 71zM795 187q-19 -4 -20 -24q-1 -17 -13 -28.5t-29 -11.5q-16 0 -27.5 11t-12.5 27q-1 11 -9 18t-18 7h-308q-10 0 -18 -7t-9 -18q-1 -16 -12.5 -27t-27.5 -11q-17 0 -29 11.5t-13 28.5q-1 20 -20 24q-23 6 -36 24.5t-11 42.5l8 60q2 23 18 42.5
t39 26.5q17 5 19 22v5v2l41 152q7 33 36.5 57t62.5 24h212q33 0 62.5 -24t36.5 -57l41 -152v-1.5v-0.5v-5q2 -17 19 -22q23 -7 39 -26.5t18 -42.5l8 -60q2 -24 -11 -42.5t-36 -24.5zM708.5 344q-20.5 0 -35 -14t-14.5 -34.5t14.5 -35t35 -14.5t35 14.5t14.5 35t-14.5 34.5
t-35 14zM673 414q8 10 6 24v2l-33 100q-3 17 -17 28.5t-31 11.5h-171q-17 0 -31.5 -11.5t-17.5 -28.5l-32 -100l-1 -2q-2 -14 7 -24q8 -10 24 -10h273q15 0 24 10zM384 443l30 98h196l30 -98h-256zM315.5 344q-20.5 0 -35 -14t-14.5 -34.5t14.5 -35t35 -14.5t35 14.5
t14.5 35t-14.5 34.5t-35 14z" />
    <glyph glyph-name="zhuanrang" unicode="&#xe67a;" 
d="M490 848q-117 -6 -216 -66.5t-159.5 -159.5t-66.5 -216q-5 -97 30.5 -187t98 -155.5t150.5 -104.5t185 -39q187 0 320 128q6 6 6 19q0 10 -7 18t-18 8q-15 0 -19 -10q-65 -59 -149 -88.5t-178 -20.5q-143 15 -247 117.5t-121 244.5q-10 92 18.5 177.5t84.5 148.5
t137.5 100.5t172.5 37.5q173 0 294.5 -121.5t121.5 -294.5q0 -72 -26 -144v-6q0 -11 7.5 -18.5t18.5 -7.5q17 0 22 16q29 72 29 160q-1 97 -40.5 185t-105 150.5t-156 98t-187.5 30.5zM864 115zM838 115.5q0 -10.5 7.5 -18t18.5 -7.5t18.5 7.5t7.5 18t-7.5 18t-18.5 7.5
t-18.5 -7.5t-7.5 -18zM800 460.5q0 6.5 -3 9.5l-3 4q0 3 -4 3l-128 128q-7 7 -17.5 7t-17.5 -7t-7 -17.5t7 -17.5l90 -90h-467q-11 0 -18.5 -7t-7.5 -19q0 -10 7 -17.5t19 -7.5h528q6 0 9 3q2 0 3.5 1.5t3.5 1.5q3 3 3 7v3q3 9 3 15.5zM224 307.5q0 -6.5 3 -9.5l3 -4
q0 -3 4 -3l128 -128q7 -7 17.5 -7t17.5 7t7 17.5t-7 17.5l-90 90h467q11 0 18.5 7t7.5 19q0 10 -7 17.5t-19 7.5h-524q-7 0 -10 -3q-2 0 -3.5 -1.5t-2.5 -1.5q-5 -13 -7 -13v-3q-3 -3 -3 -9.5z" />
    <glyph glyph-name="fangdajing" unicode="&#xe607;" 
d="M977 -18l-299 299q68 93 68 207q0 95 -47 176t-127.5 127.5t-175.5 46.5t-175.5 -46.5t-127.5 -127.5t-47 -176t47 -175.5t127.5 -127.5t175.5 -47q135 0 235 91l297 -296q5 -6 13 -6t14 6l22 22q6 6 6 14t-6 13v0v0v0zM396 211q-115 0 -196 81.5t-81 196t81 195.5
t195.5 81t196 -81t81.5 -195.5t-81.5 -196t-195.5 -81.5v0v0zM421 728v0q-100 0 -171 -71t-71 -171v0v0q0 -14 10 -24t24 -10t24 10t10 24v0v0q0 72 51 123t123 51v0q14 0 24 10t10 24t-10 24t-24 10v0v0zM421 728z" />
    <glyph glyph-name="duobao1" unicode="&#xe67e;" 
d="M822 112zM797 112q0 -11 7.5 -18.5t18 -7.5t18 7.5t7.5 18.5t-7.5 18.5t-18 7.5t-18 -7.5t-7.5 -18.5zM272 544h3q2 0 5 -1.5t5 -1.5h3q111 -35 221 -35q103 0 221 32q1 0 6 1.5t6 1.5q19 7 30.5 24.5t11.5 39.5q0 13 -6 25v4q-36 79 -109.5 125.5t-159.5 46.5
q-85 0 -156.5 -43.5t-109.5 -119.5q-6 -13 -6 -19v-3q0 -3 -1.5 -8t-1.5 -8q0 -42 38 -61zM288 618q2 3 3.5 7.5t2.5 8.5q32 60 89 95.5t126 35.5t127.5 -37.5t89.5 -100.5q4 -3 4 -16q0 -24 -23 -35q-1 0 -3 -1.5t-3 -1.5q-187 -59 -378 0h-3q-6 3 -10 3q-22 9 -22 35v7z
M173 384q-3 6 -10 13q-8 4 -16 0q-6 -3 -13 -10q-4 -8 0 -16l4 -9.5t10 -23t14.5 -31.5t20.5 -37.5t26.5 -39t33 -39t39.5 -34.5q3 -3 12 -3q12 0 16 9q5 7 4.5 15.5t-7.5 13.5q-40 29 -73.5 76t-47 78.5t-13.5 37.5zM403 125q-11 2 -26.5 11t-21.5 14q-7 5 -15.5 3t-13 -9
t-2.5 -15.5t9 -13.5q2 -1 15 -8t24.5 -12.5t21.5 -8.5h6q8 0 13.5 4.5t5.5 11.5q0 10 -3 16q-6 7 -13 7zM867 541q-32 0 -57 -13l-13 -6q-7 -4 -19.5 -8.5t-19.5 -7.5q-120 -48 -246 -48q-130 0 -250 48q-9 3 -26.5 11t-27.5 11h-3q-24 10 -51 10q-53 0 -91 -36t-41 -89v-7
q0 -19 4 -32q17 -116 86 -211.5t174 -150t223 -54.5q145 0 265 80q2 3 4 6.5t4.5 14t-4.5 18.5q-6 7 -15.5 8t-16.5 -2l-7 -3q-108 -67 -230 -67q-106 0 -199.5 48.5t-155 133.5t-77.5 189v3q-3 7 -3 19v4q2 32 24.5 54t55.5 22q9 0 28 -6q39 -19 58 -26q126 -51 269 -51
q144 0 265 51q23 12 42 16l16 10q10 6 35 6q34 0 57 -22.5t23 -53.5q0 -10 -3 -23q-15 -88 -58 -160q-6 -25 10 -35q8 -4 16 -2t14 7l5 5q50 84 64 179q3 16 3 29q0 54 -38.5 92.5t-92.5 38.5z" />
    <glyph glyph-name="icon05" unicode="&#xe609;" 
d="M517 88q7 0 15 1q37 4 66 28t40 60q1 1 1 2q0 5 -5 7q-6 2 -9 -3q-2 -4 -7.5 -9.5t-30 -17t-58.5 -16.5q-17 -2 -33 -2q-53 0 -77 20q-2 2 -4.5 2t-5.5 -1q-2 -3 -2 -6q0 -2 1 -4q17 -28 46.5 -44.5t62.5 -16.5zM925 559h-0.5h-0.5q-34 146 -151 241.5t-268 95.5
q-156 0 -275 -100.5t-148 -252.5q-28 -5 -47 -27.5t-19 -51.5v-160q0 -34 23.5 -57.5t56.5 -23.5q38 0 62 30q27 -70 78.5 -124.5t120.5 -84.5q2 3 4.5 6.5t3.5 3.5q3 0 4 -2q-27 21 -65 79t-49 131q-5 36 17.5 68t56.5 38q32 6 101.5 20t106.5 21q65 12 93 73q10 21 14 56
q1 7 8 7q4 0 7 -4l2 1q81 -117 89 -221q8 -89 -6 -145t-71 -108q0 -1 -1 -1q-1 -2 -1 -4q0 -3 3 -5q0 -1 1 -1h1q1 -1 1.5 -1t1.5 1q1 0 2 0.5t1 1.5q71 39 119 103t65 142q3 -36 15.5 -51t33.5 -18q-30 -115 -125.5 -186t-228.5 -83q-7 20 -25 32t-40 12q-30 0 -50.5 -20
t-20.5 -48.5t20.5 -49t50.5 -20.5q23 0 41.5 13.5t25.5 34.5q153 13 261.5 98.5t132.5 222.5q23 9 37 29.5t14 45.5v162q0 33 -24 57t-59 24zM852 513q-40 108 -135 175.5t-213 67.5q-117 0 -211.5 -67t-134.5 -174q-2 3 -9 8q23 130 123 216t233 86q131 0 231 -85t124 -214
q-6 -7 -8 -13zM357 44v0v0z" />
    <glyph glyph-name="zuoyoujiantou" unicode="&#xe611;" 
d="M743 809l-36 36l-451 -451l451 -450l36 36l-415 414z" />
    <glyph glyph-name="zuoyoujiantou2" unicode="&#xe626;" 
d="M281 -41l36 -36l451 451l-451 450l-36 -36l415 -414z" />
    <glyph glyph-name="search" unicode="&#xe601;" 
d="M873 77v0v0v0q10 -12 10 -26q0 -15 -11 -27q-11 -11 -27 -11v0q-7 0 -13 2q-9 3 -16 11v-1l-204 206q-74 -52 -165 -52q-9 0 -19 1q-18 1 -35 6q-56 3 -117 51q-41 24 -77 87q-29 49 -35 109l-1 -1q-2 16 -2 32q0 4 0 3q0 25 5 50q10 67 52 122q10 20 40 44.5t66 40.5
l-10 -3q10 7 41 18q43 16 92 16v0q20 0 38 -3q49 -6 94 -29q73 -39 113 -109l-2 7q11 -12 26 -54q20 -56 18 -113q-4 -95 -66 -171l206 -206h-1v0zM691 455v13q0 46 -18 88q-19 53 -61 91q-8 7 0 -1q-5 5 -10 9q-47 40 -108 52q-15 3 0 1q-24 3 -45 3q-15 0 -30 -2
q-2 0 -6 -1h-5q-66 -11 -116 -53q-19 -12 -39.5 -41t-32.5 -64q-1 3 -3 -3q-10 -24 -12 -69q-3 -62 23 -115q31 -69 97 -106q0 -3 12 -9.5t34 -13t44 -9.5q1 -2 11.5 -2.5t28 0t33.5 3.5q46 8 84 31q7 2 27 18.5t37 37.5l-1 -4q12 11 33 53q2 3 3 7l-14 -26q4 7 8 15v0
q25 48 26 104v-7z" />
    <glyph glyph-name="tiaoyan" unicode="&#xe6b7;" 
d="M509 574v0q0 14 -9.5 23t-22.5 9v0h-301q-14 0 -23.5 -9t-9.5 -22.5t9.5 -23t23.5 -9.5h301v0q13 0 22.5 9.5t9.5 22.5v0zM301 394h-125q-14 0 -23.5 -9.5t-9.5 -23t9.5 -23t23.5 -9.5h125q13 0 22.5 9.5t9.5 23t-9.5 23t-22.5 9.5v0zM143 148.5q0 -13.5 9.5 -23
t23.5 -9.5h625q14 0 23.5 9.5t9.5 23t-9.5 23t-23.5 9.5h-625v0q-14 0 -23.5 -9.5t-9.5 -23zM1014 887q-9 9 -22.5 9t-22.5 -9l-632 -632q-9 -9 -9 -22.5t9.5 -23t22.5 -9.5t23 10l631 631q9 9 9 22.5t-9 22.5v1zM913 -29q0 -14 -10 -24t-24 -10h-781q-14 0 -24 10t-10 24
v780q0 15 10 24.5t24 9.5h631v65h-631q-40 0 -69 -29t-29 -70v-780q0 -41 29 -69.5t69 -28.5h781q40 0 69 28.5t29 69.5v631h-64v-631v0z" />
  </font>
</defs>
</svg>
